<svg id="Layer_1" data-name="Layer 1" xmlns="http://www.w3.org/2000/svg" viewBox="0 0 2000 2000"><defs><style>.cls-1{fill:#004284;}.cls-2{fill:#00589e;}.cls-3{fill:#409bd4;}</style></defs><path class="cls-1" d="M1027.5,26.1v91.1h-.1q-159.45,0-318.5,1.2c-27.3.2-57.2,8.1-81.3,21-72.3,38.7-141.7,82.9-213.7,122.1-23.8,13-31.4,27.7-31.4,53.6q1.2,577.95,0,1156.2c-.1,26.1,8,40.7,31.1,53.8,195.5,111.3,389.6,224.4,585.5,335.1,7.4,4.3,17.8,6.3,28.5,6.3V1974c-9.7-.1-19.4-2.1-26.3-6C776.4,1840.5,552.7,1710.9,328,1583c-28.8-16.4-38.9-35.2-38.7-68.5q1.8-621.6,0-1243.1c-.1-33.4,10.2-52.2,39.2-68.1C423,151.4,515.8,96.2,610.3,44.3,629.1,34,652.6,27.1,674,27Q850.85,26.1,1027.5,26.1Z"/><path class="cls-1" d="M1765.6,1515.8c.2,30.6-7.4,49.6-35.3,65.5-225.8,128.4-450.7,258.9-676.7,387.1-6.7,3.7-16.4,5.6-26.1,5.5V1866.4c10.5,0,21-2,28.3-6.2,196-110.6,390.3-223.8,585.9-335.1,24.2-13.8,33.1-28.8,32.8-57-1.4-191.9-.7-383.9-.9-575.8,0-191.9.7-383.9-1.1-575.8-.2-17.2-11.9-41.5-26-50.2-73.5-45.6-148.9-88.5-225.2-129.5-21.5-11.6-48.2-18.2-72.6-18.5q-160.65-1.2-321.2-1.1h-.1v-91h.1q177.45,0,354.8.9c21.5.1,45.1,6.9,63.9,17.4,94.5,52.2,187.2,107.5,281.7,159.7,27,14.9,38.2,31.7,37.9,63.9-1.7,208.7-.9,417.4-.9,626.1C1765,1101.4,1764.4,1308.6,1765.6,1515.8Z"/><path class="cls-2" d="M1590.1,1420c.2,28.4-9.6,44.1-33.5,57.6q-247.8,141-494.1,284.6c-13,7.6-24,11.2-34.9,11.1V204.7H1307c0,44.9,1.4,88.6-.9,132.2-.5,11.4-11.1,24-20.2,32.7-19.8,18.9-40,38-62.9,52.8-44.9,29-64.3,66.5-46.4,125.9h281.2c0,47.3,2.4,88.3-1.4,128.6-1.2,12.7-17.3,26.8-30.2,34.7-51.9,31.7-104.2,62.8-158.1,90.6-28.7,14.8-60.9,22.5-95,34.8v543.3c50.9-29.1,97.3-54,141.7-82.2,8.1-5.2,10.9-23.5,11-35.7.9-83.8-.1-167.7,1.2-251.4.2-13.3,5.1-33.1,14.5-38.7,79-47.7,159.4-92.7,244.4-141.5,1.8,17.8,3.7,29.2,3.7,40.6C1589.4,1054.4,1588.8,1237.1,1590.1,1420Z"/><path class="cls-3" d="M1027.5,204.6V1773.3c-11.2-.1-22.2-4-34.8-11.6-165.4-96.7-331.9-191.3-497.2-288-12.9-7.6-27.8-26.3-27.8-39.8-1.8-194.9-1.1-390-.9-585,0-3.9,2.8-7.8,6.1-16.5,82.9,47.9,164.5,94,244.5,142.6,9.2,5.7,13.3,25.7,13.5,39.2,1.3,82.1,1.4,164.5.3,246.7-.4,23.8,5,38.4,28.5,50,40.4,19.8,78.4,44.4,122.6,69.9V833.6C778,818.3,702.5,747,614.4,702.2c-8.7-4.4-17.3-18-17.8-27.8-2-39.2-.9-78.7-.9-124.1H880c14.2-58.9,3.9-101.5-51.1-126.1-90.7-47.5-92.8-129.1-76.3-219.7h274.9Z"/><polygon class="cls-2" points="627.4 1185 627.4 1115.4 697.1 1115.4 697.1 1045.1 627.4 1045.1 627.4 975.5 557.1 975.5 557.1 1045.1 487.5 1045.1 487.5 1115.4 557.1 1115.4 557.1 1185 627.4 1185"/><polygon class="cls-3" points="1567 1045.1 1497.4 1045.1 1497.4 975.5 1427 975.5 1427 1045.1 1357.4 1045.1 1357.4 1115.4 1427 1115.4 1427 1185 1497.4 1185 1497.4 1115.4 1567 1115.4 1567 1045.1"/></svg>